<svg version="1.1" id="Layer_1" xmlns="http://www.w3.org/2000/svg" xmlns:xlink="http://www.w3.org/1999/xlink" x="0px" y="0px"
	 width="100%" viewBox="0 0 976 976" enable-background="new 0 0 976 976" xml:space="preserve">
<path fill="#000000" opacity="1.000000" stroke="none" 
	d="
M647.076233,253.687836 
	C684.192322,263.059814 707.357422,287.214417 718.854492,322.128052 
	C736.603638,376.027863 727.265198,426.515778 696.305176,473.488525 
	C688.921265,484.691467 679.968323,494.510681 670.118042,503.542236 
	C668.651489,504.886871 667.472229,507.014648 664.946472,506.804169 
	C663.941284,504.788177 665.270569,503.412994 665.892883,501.980438 
	C674.757751,481.573029 680.421082,460.239044 684.886780,438.495819 
	C687.936157,423.648773 690.617554,408.704590 691.257751,393.630402 
	C692.266541,369.879364 689.278381,346.574860 676.040955,326.025818 
	C662.085754,304.362701 641.188416,297.235687 616.428223,299.844269 
	C591.992981,302.418579 570.114685,312.932556 548.042236,322.671997 
	C524.283569,333.155487 499.640137,340.554230 473.897980,343.916107 
	C459.161926,345.840637 444.355896,345.893829 429.749786,342.324768 
	C428.178223,341.940735 426.428070,341.933380 425.266113,339.816498 
	C453.316742,334.429688 480.412689,326.817505 505.796906,310.875641 
	C500.163849,308.535400 495.416321,309.186707 490.962006,308.725159 
	C471.245361,306.681915 452.585358,300.614746 433.944855,294.455322 
	C415.848541,288.475800 397.449310,283.595917 378.338287,283.563080 
	C344.986145,283.505768 318.642273,297.568939 299.512512,324.988678 
	C296.864502,328.784271 294.502960,332.817627 290.613678,336.450897 
	C282.766754,329.713562 274.380463,323.802582 267.777710,315.834045 
	C266.366974,314.131531 267.381287,312.716095 268.383240,311.351959 
	C290.014954,281.900970 316.713196,259.862427 354.109344,254.317886 
	C375.192108,251.192032 395.893341,254.500687 416.271515,260.113739 
	C433.282776,264.799377 449.746948,271.184021 466.719025,276.057709 
	C495.499207,284.322144 522.928894,280.726807 549.943054,269.074036 
	C565.218018,262.485077 580.622742,256.075317 597.144104,253.161377 
	C613.658569,250.248642 630.191101,249.551208 647.076233,253.687836 
z"/>
<path fill="#000000" opacity="1.000000" stroke="none" 
	d="
M525.946411,541.906128 
	C562.134338,550.671326 598.422546,555.034058 635.232910,553.592529 
	C665.624573,552.402344 695.658691,548.561829 724.008484,536.576050 
	C740.688416,529.524048 755.152893,519.711182 762.290771,502.052765 
	C768.657837,486.301117 768.058960,470.132233 764.232178,453.961548 
	C761.652954,443.062469 757.523193,432.702850 752.103638,422.878540 
	C751.422546,421.644012 749.986267,420.578918 751.359070,418.550262 
	C760.080872,424.126678 767.804626,430.810974 774.889709,438.274078 
	C787.561951,451.622406 797.607849,466.640656 803.024963,484.353638 
	C811.265320,511.297913 803.271545,535.684998 780.667114,553.783813 
	C762.644531,568.214050 741.638916,575.867126 719.327881,580.139771 
	C696.682129,584.476440 673.719788,585.740417 650.705627,584.889343 
	C626.243958,583.984680 601.928711,581.488831 577.711487,577.708679 
	C541.958496,572.127625 506.871063,563.842651 472.312958,553.226746 
	C442.819031,544.166443 414.189789,532.854248 386.259064,519.761047 
	C346.617035,501.177795 309.207184,478.692871 273.841980,453.040985 
	C250.545776,436.143219 227.959015,418.164551 207.253769,398.007111 
	C201.410049,392.317993 195.067596,387.143921 189.147736,381.529266 
	C185.260559,377.842499 182.089066,373.535645 180.189148,368.431091 
	C178.144760,362.938354 179.153122,357.696136 183.007065,354.166016 
	C187.076584,350.438416 191.653610,351.223999 196.102173,353.140503 
	C201.846573,355.615295 206.641617,359.553955 210.893631,364.058105 
	C234.335403,388.889984 261.159332,409.837372 288.371582,430.161713 
	C325.438690,457.846558 365.248962,481.042358 407.604736,499.904388 
	C438.835846,513.812256 470.505219,526.409729 503.331360,535.998840 
	C510.674438,538.143799 518.133118,539.893005 525.946411,541.906128 
z"/>
<path fill="#000000" opacity="1.000000" stroke="none" 
	d="
M429.078552,697.886475 
	C427.026489,705.731812 424.330658,712.865234 420.331299,719.490601 
	C412.580627,732.330200 400.707184,734.515747 389.277679,724.948120 
	C375.111298,713.089355 366.520264,697.263611 358.760712,680.965271 
	C341.522217,644.757263 330.358154,606.373474 318.748932,568.158875 
	C312.752228,548.419189 306.290131,528.814697 301.358154,508.763458 
	C300.982880,507.237610 300.002533,505.734833 301.103638,503.681030 
	C304.189514,506.380859 305.512238,509.993774 307.206055,513.264465 
	C322.218109,542.252441 335.712006,572.014221 351.430969,600.637817 
	C362.165924,620.185791 372.427063,640.042236 385.821167,658.004517 
	C387.713867,660.542664 389.692657,663.005615 392.241852,664.958984 
	C397.730438,669.164734 401.681854,668.771362 405.835938,663.211060 
	C411.564850,655.542908 415.050598,646.630798 419.245850,638.129700 
	C426.644592,623.137268 434.865692,608.740601 446.312714,596.356262 
	C455.415344,586.508301 465.750946,578.520935 478.724640,574.678040 
	C496.958191,569.276978 512.889221,574.351685 527.003479,586.326172 
	C540.094910,597.432861 548.474426,612.077942 556.984192,626.615356 
	C563.294495,637.395325 569.128601,648.460571 576.280518,658.737671 
	C579.337280,663.130249 582.615234,667.319336 586.681702,670.830933 
	C594.478760,677.564148 602.792664,677.561462 610.483948,670.692993 
	C619.370422,662.757263 624.890442,652.459412 630.190308,642.046204 
	C636.773987,629.110657 641.422241,615.355591 647.009155,601.997498 
	C648.055054,599.496643 648.880615,596.844299 650.748413,594.756165 
	C652.562927,595.807495 652.142029,597.293091 652.112366,598.524780 
	C651.221924,635.523438 644.216675,670.946838 624.672424,703.025330 
	C619.270203,711.892273 612.786499,719.924500 604.147156,725.949646 
	C591.222595,734.963501 578.274109,732.343811 569.862976,719.124756 
	C563.937195,709.811707 561.419678,699.278259 558.768677,688.784363 
	C553.674011,668.618042 549.071106,648.294678 539.257996,629.682129 
	C533.240295,618.268250 525.596252,608.264343 513.969421,602.125549 
	C493.196106,591.157532 468.335663,597.828552 454.990601,617.647278 
	C446.672607,630.000366 442.011444,643.879211 438.387543,658.118591 
	C435.063965,671.177917 432.236389,684.363403 429.078552,697.886475 
z"/>
<path fill="#000000" opacity="1.000000" stroke="none" 
	d="
M675.429810,371.743164 
	C678.022766,390.346588 676.664429,408.406677 673.962952,426.405060 
	C672.031311,439.274292 668.910645,451.866089 664.252319,464.045441 
	C663.560242,465.855011 663.364380,467.974670 660.662964,469.385681 
	C659.081604,464.291595 659.215454,459.177826 659.030029,454.243744 
	C658.629700,443.591156 659.200867,432.893005 658.580200,422.259857 
	C657.537903,404.404297 654.358459,386.887390 646.951172,370.456940 
	C639.367920,353.636017 626.140015,347.010864 608.038269,350.155670 
	C587.826599,353.667053 568.501221,360.685028 548.480469,364.957245 
	C529.791565,368.945312 511.074310,371.605194 492.108307,367.193909 
	C486.567841,365.905273 480.945892,364.441406 475.843323,360.099884 
	C480.088593,358.036926 483.927155,358.013000 487.561554,357.332733 
	C517.425110,351.742981 545.173950,340.035645 572.932800,328.250366 
	C587.930847,321.882751 602.999878,315.701538 619.635925,314.491821 
	C643.492859,312.757050 658.949707,321.545868 668.520996,343.296631 
	C672.437073,352.195831 674.344421,361.656525 675.429810,371.743164 
z"/>
<path fill="#000000" opacity="1.000000" stroke="none" 
	d="
M747.532410,449.641266 
	C752.544800,465.007263 754.929504,480.060516 749.234070,495.443878 
	C745.154724,506.462372 736.696045,513.288818 726.946716,518.749451 
	C707.988647,529.367981 687.055298,533.326477 665.868774,536.191895 
	C649.165588,538.450928 632.347778,538.620178 615.524597,538.325562 
	C600.689026,538.065796 586.031677,535.864197 571.363647,533.959473 
	C559.343262,532.398682 547.402832,530.223633 535.424133,528.338684 
	C533.964111,528.108948 532.425415,528.150452 530.896606,526.183716 
	C534.026733,525.271118 536.902527,525.743774 539.678955,525.895935 
	C572.275757,527.681946 604.835266,528.617920 637.403381,524.898193 
	C656.042236,522.769409 674.205261,519.109253 691.458618,511.630951 
	C717.551270,500.321350 731.589233,479.722595 736.638916,452.354858 
	C737.542358,447.458435 738.100952,442.498474 738.825806,437.568909 
	C738.990295,436.450867 738.880188,435.179993 740.594788,434.600006 
	C744.088013,438.867615 745.442017,444.216095 747.532410,449.641266 
z"/>
<path fill="#000000" opacity="1.000000" stroke="none" 
	d="
M225.774200,491.501129 
	C227.986572,490.213226 228.029312,490.208008 228.297516,492.401703 
	C229.305679,500.648132 230.158035,508.915680 231.300095,517.143250 
	C233.343231,531.862244 232.684708,532.698914 246.649490,534.249695 
	C255.570770,535.240356 264.461548,536.507202 273.362701,537.675476 
	C274.420013,537.814209 275.755402,537.398560 276.482025,539.325378 
	C272.395142,541.157288 267.979248,541.518433 263.701965,542.184631 
	C255.983429,543.386841 248.228241,544.380493 240.466049,545.265503 
	C236.107544,545.762390 233.969986,548.179504 233.324997,552.289673 
	C231.624329,563.127502 229.914505,573.963928 228.220352,584.802795 
	C228.044708,585.926392 228.170486,587.148560 226.744919,588.152344 
	C225.102356,586.941956 225.305054,584.933472 225.062622,583.379944 
	C223.500031,573.366577 221.866867,563.351196 220.802658,553.278748 
	C220.274139,548.276184 218.257217,545.976501 213.261490,545.313416 
	C202.056793,543.826294 190.906784,541.926636 179.735977,540.185547 
	C178.922195,540.058716 178.070114,539.928650 177.731125,538.379822 
	C184.979080,536.284058 192.540100,535.983459 199.919754,534.740479 
	C204.832291,533.913025 209.774124,533.254333 214.710419,532.575012 
	C218.104019,532.107971 219.281509,529.737793 220.082108,526.815552 
	C222.599075,517.628174 222.901367,508.086975 224.661987,498.780670 
	C225.094208,496.496002 225.368408,494.181488 225.774200,491.501129 
z"/>
<path fill="#000000" opacity="1.000000" stroke="none" 
	d="
M290.416351,382.432434 
	C293.427277,378.841614 296.337006,375.623352 298.975616,372.196350 
	C302.413391,367.731354 305.817749,370.333008 309.055756,372.172241 
	C312.432343,374.090118 314.188751,376.984894 312.326233,380.952881 
	C311.629181,382.437897 310.777283,383.925690 309.692352,385.141205 
	C301.377625,394.456909 292.899506,403.628143 284.667084,413.015228 
	C281.546661,416.573242 278.595551,416.358032 275.116089,413.865448 
	C271.379303,411.188568 272.618530,408.261505 274.414795,405.156860 
	C279.013977,397.207550 284.243958,389.708160 290.416351,382.432434 
z"/>
<path fill="#000000" opacity="1.000000" stroke="none" 
	d="
M251.835526,359.877563 
	C256.436188,353.942657 260.920563,348.364471 265.189117,342.625732 
	C267.403076,339.649261 269.753326,338.997375 272.809357,341.143890 
	C274.033325,342.003601 275.336914,342.768463 276.473145,343.731232 
	C281.100922,347.652313 281.311005,349.368134 277.565369,354.127258 
	C271.177551,362.243408 263.968475,369.628845 256.892090,377.130890 
	C255.297119,378.821869 253.717041,380.533295 252.230713,382.319031 
	C248.664429,386.603760 243.640228,386.502686 240.174316,382.139130 
	C238.589050,380.143250 239.250946,378.414490 240.421631,376.676300 
	C244.137207,371.159637 247.890839,365.668640 251.835526,359.877563 
z"/>
<path fill="#000000" opacity="1.000000" stroke="none" 
	d="
M292.459869,371.397278 
	C284.781036,381.307373 275.802338,389.552124 267.740906,398.630981 
	C264.600067,402.168213 261.375702,401.157349 258.000824,398.835144 
	C254.424377,396.374207 255.851410,393.838959 257.549744,391.150543 
	C264.759094,379.738312 272.579742,368.778839 281.669678,358.773590 
	C286.250824,353.731140 286.912659,353.755920 292.108093,358.391113 
	C292.604706,358.834167 293.044098,359.351868 293.579071,359.739624 
	C297.257446,362.405853 298.034332,365.314941 294.481079,368.726501 
	C293.771240,369.408051 293.275146,370.312225 292.459869,371.397278 
z"/>
<path fill="#000000" opacity="1.000000" stroke="none" 
	d="
M245.444824,316.773834 
	C248.576401,319.877441 246.731567,322.266968 244.839081,324.438202 
	C238.602448,331.593384 232.277466,338.671844 225.958344,345.754700 
	C223.520462,348.487244 220.958649,351.109802 218.540573,353.859222 
	C215.441528,357.382874 212.173294,356.800995 208.797012,354.408173 
	C205.417801,352.013336 205.891846,348.908875 207.801682,346.067261 
	C215.613907,334.443634 224.147873,323.364746 233.404739,312.843262 
	C235.617218,310.328522 237.880905,310.201508 240.355652,312.194580 
	C242.033813,313.546051 243.584610,315.055725 245.444824,316.773834 
z"/>
<path fill="#000000" opacity="1.000000" stroke="none" 
	d="
M241.558624,360.555634 
	C238.747971,363.647217 236.111832,366.421661 233.591537,369.297668 
	C231.224396,371.998901 228.731461,371.900452 226.192596,369.744232 
	C223.697235,367.624939 221.103958,365.034058 223.615051,361.695038 
	C232.506073,349.872589 240.429276,337.212372 250.741776,326.612335 
	C255.189117,322.040955 257.796051,329.689087 261.548340,331.096924 
	C263.970215,332.005615 264.742767,334.210907 262.531494,336.685974 
	C255.553619,344.496246 248.690948,352.409454 241.558624,360.555634 
z"/>
<path fill="#000000" opacity="1.000000" stroke="none" 
	d="
M278.676758,666.462158 
	C277.600311,659.189148 276.498352,652.301453 275.498016,645.398987 
	C275.039032,642.231812 273.831604,640.499329 270.176575,640.144104 
	C263.412170,639.486877 256.714661,638.137817 249.991943,637.060242 
	C249.176422,636.929504 248.339752,636.750854 247.882782,635.024536 
	C255.033859,633.912170 262.083405,632.486694 269.203705,631.837891 
	C273.142090,631.479065 274.965942,629.769470 275.551361,626.223633 
	C276.632385,619.675903 277.644318,613.116821 278.669739,606.559998 
	C278.820740,605.594543 278.664612,604.529541 279.764191,603.877930 
	C281.956055,604.310059 281.131866,606.150940 281.300018,607.456238 
	C282.084961,613.549500 282.729309,619.661560 283.570129,625.746704 
	C284.075134,629.401184 285.869476,631.648743 289.995758,632.071106 
	C297.377960,632.826843 304.712189,634.051453 312.704956,635.169312 
	C310.063873,638.362732 306.805145,637.522644 304.148346,638.094849 
	C299.612549,639.071533 294.965302,639.603699 290.339142,640.064819 
	C286.563263,640.441162 284.697479,642.399597 284.182190,646.038513 
	C283.251129,652.613831 282.245270,659.178772 281.237640,665.742981 
	C281.052826,666.946838 281.385773,668.628235 279.385895,668.552673 
	C279.133728,668.543152 278.922852,667.438721 278.676758,666.462158 
z"/>
</svg>