<svg version="1.1" id="Layer_1" xmlns="http://www.w3.org/2000/svg" xmlns:xlink="http://www.w3.org/1999/xlink" x="0px" y="0px"
	 width="100%" viewBox="0 0 1024 1024" enable-background="new 0 0 1024 1024" xml:space="preserve">
<path fill="#000000" opacity="1.000000" stroke="none" 
	d="
M610.932983,400.576233 
	C619.083252,400.397095 626.743774,400.215759 634.404541,400.043121 
	C637.893066,399.964478 639.998657,400.626038 640.597412,405.088226 
	C646.672119,450.355072 632.758789,488.185028 598.662415,518.432739 
	C577.842407,536.902649 553.050842,546.087708 525.458618,548.019836 
	C516.424683,548.652466 507.487396,547.359741 498.636169,545.805420 
	C495.018707,545.170166 494.304047,546.366516 494.224457,549.566956 
	C493.947327,560.711731 495.189606,571.897339 493.440918,583.001831 
	C489.708221,606.705444 469.950256,623.901855 445.954834,624.236267 
	C436.624084,624.366333 427.289856,624.263550 417.957245,624.237915 
	C410.948822,624.218628 410.892914,624.194641 410.886017,617.348206 
	C410.851410,583.017456 410.832886,548.686768 410.836212,514.356018 
	C410.838318,492.524719 411.291656,470.683167 410.737701,448.866638 
	C410.481598,438.780273 408.002686,428.766235 408.747986,418.557068 
	C409.099304,413.744751 409.391388,408.928070 409.692596,404.112244 
	C409.790314,402.549408 409.945557,400.805664 411.924774,400.809265 
	C422.648407,400.828918 433.399139,399.741119 444.259491,400.892731 
	C441.416168,410.488312 440.315521,411.360870 431.619568,411.359680 
	C420.372131,411.358154 420.394623,411.358307 420.328766,422.895935 
	C420.092255,464.331512 437.476471,496.143921 473.649719,516.361145 
	C519.126038,541.777832 575.924133,526.513672 605.453979,482.033417 
	C618.552856,462.302765 623.676392,440.490753 622.649719,417.026428 
	C622.496948,413.534821 621.544250,411.855286 617.370056,411.744385 
	C592.042786,411.071503 566.714661,411.520020 541.388611,411.362122 
	C534.402039,411.318542 527.413574,411.814117 520.423706,411.947479 
	C517.636047,412.000641 516.180481,412.963074 515.946594,415.980255 
	C514.785278,430.960693 515.209839,445.957947 515.551086,460.940155 
	C515.646729,465.138947 517.389648,469.443573 522.252686,470.445770 
	C527.153137,471.455658 529.873535,468.038239 532.057800,464.270355 
	C532.998535,462.647644 533.761780,460.806915 536.179565,461.908875 
	C538.570740,462.998657 537.707703,464.945068 537.233521,466.660126 
	C535.661560,472.345886 533.415039,477.704926 528.963745,481.805206 
	C520.190186,489.886841 508.132477,487.200317 503.774048,476.171997 
	C502.231018,472.267548 501.701599,468.164978 501.633331,463.946472 
	C501.390442,448.945862 502.134735,433.974030 502.655060,418.992676 
	C502.899078,411.967621 502.723175,411.904205 495.940704,411.957733 
	C481.368622,412.072693 484.623749,410.307709 483.603241,424.501434 
	C482.625153,438.104797 482.124512,451.743958 480.252960,465.265991 
	C479.524902,470.526001 478.477600,475.774689 475.625427,480.442291 
	C472.908905,484.887848 468.954163,486.822784 463.831635,486.305420 
	C457.263580,485.642059 453.309906,479.286133 455.800232,473.177948 
	C456.729401,470.898865 458.078400,468.705261 459.613312,466.772339 
	C471.518250,451.780609 473.673279,434.103394 473.860016,415.853790 
	C473.884644,413.445007 472.932770,412.083252 470.364502,412.056732 
	C462.673370,411.977386 455.221344,412.477966 450.523346,419.913605 
	C449.618805,421.345215 448.597900,422.132965 446.824036,421.332336 
	C444.871796,420.451202 445.242798,418.921814 445.812317,417.532806 
	C447.137238,414.301270 448.424377,411.025421 450.101349,407.973236 
	C453.144806,402.433899 457.649780,399.718201 464.344604,399.794403 
	C490.672882,400.094086 517.005493,400.014435 543.336487,400.074249 
	C545.645142,400.079498 547.953735,400.074921 550.209290,400.074921 
	C551.008606,397.365570 549.206299,396.269867 548.046204,395.076843 
	C541.278442,388.116821 532.977661,384.018463 523.330017,383.348755 
	C513.865601,382.691711 504.355377,382.481812 494.864319,382.458679 
	C454.700775,382.360718 414.536926,382.409851 374.373169,382.393951 
	C367.619568,382.391266 367.472198,382.362457 367.620392,375.455841 
	C367.863373,364.133484 367.125702,352.832001 367.530518,341.490265 
	C368.377930,317.746948 386.413513,299.656769 410.258026,299.612274 
	C447.255157,299.543182 484.254547,299.380585 521.249268,299.695831 
	C562.140381,300.044250 594.203125,317.856049 618.358521,350.400665 
	C626.360901,361.182312 632.195984,373.153412 636.083923,386.023987 
	C636.637634,387.857025 637.811646,389.703827 636.852722,391.880432 
	C633.881714,393.573273 630.688904,392.373840 627.603577,392.388214 
	C614.604858,392.448883 601.605591,392.399445 588.606567,392.390839 
	C578.283813,392.384003 578.283813,392.384369 573.901184,381.960052 
	C587.067078,380.250641 600.089355,381.399750 613.669800,381.526733 
	C611.688538,375.177856 608.567322,370.112762 605.217041,365.316956 
	C584.607971,335.815338 556.775635,319.187836 520.252747,318.985779 
	C484.590088,318.788483 448.924866,318.962616 413.261169,319.090912 
	C396.377472,319.151642 387.611420,328.007141 387.194519,345.056213 
	C387.096741,349.054535 387.294861,353.074249 386.948395,357.048523 
	C386.540527,361.726532 388.496124,363.056122 392.989807,363.038849 
	C424.320312,362.918335 455.651764,362.950043 486.982513,363.056061 
	C498.972778,363.096619 510.973633,362.566193 522.953308,363.628082 
	C544.895325,365.573059 561.385559,375.878784 571.392761,395.665253 
	C573.291443,399.419250 575.530090,400.671936 579.453125,400.614197 
	C589.781128,400.462311 600.113037,400.572021 610.932983,400.576233 
M430.346985,516.501709 
	C430.341736,540.789368 430.334625,565.077087 430.331818,589.364746 
	C430.329987,605.560364 430.332733,605.560364 446.663239,604.638306 
	C462.763428,603.729187 474.565247,591.483826 474.708832,575.333252 
	C474.821228,562.691406 474.672668,550.047424 474.763947,537.405273 
	C474.784027,534.622375 474.058563,532.810425 471.362396,531.489502 
	C456.511688,524.213867 443.967682,513.973572 433.305359,501.367981 
	C432.646240,500.588776 432.219574,499.192322 430.348145,499.647583 
	C430.348145,504.913116 430.348145,510.208191 430.346985,516.501709 
z"/>
<path fill="#000000" opacity="1.000000" stroke="none" 
	d="
M365.214630,677.782471 
	C373.046143,686.622803 374.440887,696.493774 370.510376,706.877136 
	C366.618652,717.157959 358.241211,721.584473 347.610596,722.561523 
	C341.453308,723.127380 335.313232,722.820618 329.164642,722.874573 
	C326.263489,722.899963 324.946930,721.484253 324.952698,718.588623 
	C324.981873,703.949280 324.959808,689.309753 324.975311,674.670349 
	C324.977356,672.748230 325.231079,670.761414 327.757385,670.793335 
	C336.219208,670.899963 344.728088,669.848572 353.130432,671.451477 
	C357.610748,672.306091 361.619202,674.325378 365.214630,677.782471 
M360.840332,699.093018 
	C361.383942,693.386841 360.688873,687.972168 355.929565,684.131348 
	C350.615082,679.842468 344.219635,681.245605 338.148499,681.497314 
	C336.234772,681.576660 336.285095,683.556946 336.285156,685.057800 
	C336.285461,693.041138 336.307434,701.024414 336.338562,709.007751 
	C336.344543,710.543213 336.499146,711.906677 338.353943,712.546753 
	C347.715973,715.777649 358.577820,709.704102 360.840332,699.093018 
z"/>
<path fill="#000000" opacity="1.000000" stroke="none" 
	d="
M572.618164,705.997986 
	C572.627502,694.690125 572.748291,683.880310 572.585632,673.074768 
	C572.528259,669.261536 573.739685,667.602417 577.724243,667.813538 
	C585.348450,668.217468 593.003357,667.362305 600.625732,668.500183 
	C611.968262,670.193420 617.758667,677.304016 617.370239,689.330933 
	C617.054565,699.108398 609.307190,706.695557 598.840515,707.322876 
	C595.526062,707.521484 592.187927,707.480347 588.866821,707.367249 
	C585.717468,707.260071 584.198303,708.525574 584.382080,711.760559 
	C584.476257,713.417114 584.373657,715.084900 584.359802,716.747620 
	C584.308350,722.919312 583.727356,723.329895 577.401001,723.170105 
	C574.105835,723.086853 572.480347,721.965820 572.614746,718.468201 
	C572.767883,714.483887 572.629578,710.488342 572.618164,705.997986 
M602.816284,681.749512 
	C599.770996,678.499878 595.764587,679.317688 592.005432,679.273987 
	C584.332581,679.184692 584.331970,679.233582 584.316040,686.887817 
	C584.294128,697.436768 584.294189,697.436707 594.885986,696.932800 
	C604.052734,696.496704 607.362366,690.778320 602.816284,681.749512 
z"/>
<path fill="#000000" opacity="1.000000" stroke="none" 
	d="
M488.851868,735.622986 
	C487.478516,735.242920 486.489288,735.054871 485.561218,734.704773 
	C478.058014,731.874146 477.595856,729.746033 483.086029,723.475098 
	C499.229279,729.270081 505.698792,727.273499 505.293884,716.621399 
	C496.276886,722.688232 488.123566,722.488953 481.893890,716.049500 
	C475.494385,709.434509 474.840057,697.684875 480.426086,689.693237 
	C485.246460,682.796936 493.640533,681.538147 504.338593,686.170715 
	C505.918030,685.928467 506.298584,683.932922 508.255920,683.668762 
	C514.823486,682.782593 516.310059,683.850220 516.317993,690.455017 
	C516.327820,698.615356 516.322388,706.775757 516.308167,714.936096 
	C516.281311,730.350037 509.664978,736.767639 494.202545,736.327148 
	C492.552246,736.280090 490.910217,735.942688 488.851868,735.622986 
M502.143677,709.699585 
	C506.051605,705.027832 506.742432,700.655579 504.014587,696.543518 
	C501.891449,693.342957 498.797394,691.925049 494.977875,692.634399 
	C490.934479,693.385315 488.626404,696.020325 487.703461,699.952209 
	C486.811981,703.750122 488.090149,706.887146 490.893677,709.361328 
	C494.174347,712.256470 497.802948,712.274841 502.143677,709.699585 
z"/>
<path fill="#000000" opacity="1.000000" stroke="none" 
	d="
M663.879333,713.363281 
	C667.500183,714.229797 670.678711,713.875000 673.339661,711.934387 
	C677.915527,708.597290 679.836792,712.663757 681.639099,715.146851 
	C683.895996,718.256348 680.323059,719.473938 678.484375,720.598633 
	C669.746338,725.943359 656.855225,724.281128 650.378235,717.211365 
	C643.865845,710.102966 643.119080,697.740479 648.694763,689.344360 
	C653.452148,682.180664 664.751709,679.223083 673.858398,682.758057 
	C681.854370,685.861938 686.771973,695.068848 685.394165,703.898254 
	C684.914368,706.973328 682.811401,707.020813 680.656250,707.053223 
	C675.165955,707.135742 669.673279,707.049133 664.182312,707.106934 
	C662.398499,707.125793 660.511414,706.737488 658.590759,708.135315 
	C658.637390,711.281616 660.970276,712.350159 663.879333,713.363281 
M672.909058,695.477478 
	C668.854492,690.104126 661.644897,689.612732 658.352356,694.503296 
	C656.722473,696.924316 656.952209,698.626709 660.288452,698.709717 
	C663.761780,698.796143 667.239563,698.749634 670.714539,698.702209 
	C672.339661,698.679993 673.811462,698.373352 672.909058,695.477478 
z"/>
<path fill="#000000" opacity="1.000000" stroke="none" 
	d="
M405.712799,711.719482 
	C409.734131,710.016235 411.354462,713.085632 412.596558,715.227356 
	C414.108429,717.834351 411.066345,718.876892 409.431580,719.951660 
	C402.089600,724.778625 392.141449,724.556152 385.077026,719.218262 
	C378.031708,713.894714 376.640137,706.307312 378.002899,698.176208 
	C379.339661,690.199890 385.547607,684.680908 394.029785,683.139465 
	C405.766693,681.006531 417.014130,691.290405 416.278503,703.334534 
	C416.094452,706.347229 414.740417,707.401367 411.896179,707.356079 
	C406.245819,707.265991 400.592682,707.261047 394.942047,707.331055 
	C393.198517,707.352600 391.273773,706.741760 389.754181,708.204529 
	C392.097015,714.367615 397.955505,715.744019 405.712799,711.719482 
M401.822205,699.722595 
	C405.343567,699.458496 405.098694,697.560181 403.596405,695.353699 
	C401.280365,691.951965 397.791718,691.630493 394.244598,692.492554 
	C390.937836,693.296143 388.936859,695.498047 388.809479,699.274719 
	C393.047333,700.288940 397.028564,699.626770 401.822205,699.722595 
z"/>
<path fill="#000000" opacity="1.000000" stroke="none" 
	d="
M525.621643,709.986694 
	C525.617310,702.994690 525.494202,696.497375 525.676880,690.008606 
	C525.738831,687.809509 524.283325,684.367310 528.056030,683.951172 
	C531.225952,683.601624 535.152344,682.182800 537.125610,686.860901 
	C542.002258,684.184021 546.845337,681.695435 552.687195,683.575745 
	C558.026062,685.294250 562.036316,689.510864 562.242065,695.089417 
	C562.536377,703.065735 562.275024,711.060974 562.406006,719.045532 
	C562.472595,723.102539 559.824768,723.044312 557.038757,723.011536 
	C554.271301,722.978943 551.582520,723.027039 551.653992,718.989990 
	C551.757080,713.164368 551.736084,707.332458 551.584045,701.507996 
	C551.477234,697.418701 550.413452,693.799561 545.427917,693.294739 
	C540.838196,692.829956 538.055542,695.169922 536.960632,700.470093 
	C535.734619,706.404602 536.354553,712.427795 536.430969,718.399719 
	C536.483826,722.534790 534.227478,722.990845 531.059326,722.971191 
	C527.957520,722.951965 525.324585,722.660156 525.605347,718.474976 
	C525.783203,715.823120 525.628174,713.148865 525.621643,709.986694 
z"/>
<path fill="#000000" opacity="1.000000" stroke="none" 
	d="
M446.868774,701.940674 
	C455.195251,709.656372 453.091522,719.255127 442.613861,722.415405 
	C435.376495,724.598267 428.453583,723.468628 421.991425,719.549255 
	C419.891022,718.275330 418.619995,716.774780 420.415924,714.300415 
	C421.949524,712.187561 422.991486,709.402344 426.567352,711.654541 
	C429.684906,713.618225 433.106232,714.982361 436.952911,714.638916 
	C438.512512,714.499695 440.058777,714.172485 440.500641,712.444519 
	C441.036865,710.347473 439.497375,709.355713 437.893127,708.786255 
	C435.075500,707.786133 432.130005,707.140930 429.327087,706.105957 
	C423.749542,704.046326 420.599213,699.815491 420.836823,695.015930 
	C421.104584,689.606262 424.793732,685.266479 430.455261,683.598145 
	C436.794647,681.730042 442.632446,683.399109 448.316559,686.082214 
	C451.643585,687.652710 450.514709,689.810913 449.217743,692.239868 
	C447.967041,694.582214 446.880402,696.334961 443.974426,694.369385 
	C441.876953,692.950684 439.468903,692.188721 436.994965,691.782715 
	C434.737854,691.412292 432.283386,691.659912 431.738007,694.250610 
	C431.258972,696.526306 433.576447,697.062866 435.284332,697.685120 
	C439.032715,699.050781 442.789276,700.394043 446.868774,701.940674 
z"/>
<path fill="#000000" opacity="1.000000" stroke="none" 
	d="
M637.090637,694.036011 
	C637.058838,702.335938 636.843628,710.146118 637.058105,717.944580 
	C637.218079,723.761230 633.416931,723.017090 629.708496,723.174438 
	C625.630310,723.347534 625.274414,721.203674 625.314941,717.857483 
	C625.437561,707.737671 625.335571,697.611816 625.117737,687.492737 
	C625.020508,682.979858 626.860657,681.644348 631.315247,681.655945 
	C635.831238,681.667664 637.246948,683.482361 637.040833,687.564331 
	C636.940491,689.550720 637.067566,691.548584 637.090637,694.036011 
z"/>
<path fill="#000000" opacity="1.000000" stroke="none" 
	d="
M468.627380,684.532349 
	C469.831421,696.479065 469.205627,708.088623 469.259033,719.690369 
	C469.276978,723.586792 466.047668,722.774292 463.748291,722.890320 
	C461.428101,723.007446 458.788483,723.091370 458.778320,719.628479 
	C458.743774,707.876221 458.765106,696.123840 458.765106,684.238403 
	C462.181183,683.265869 465.244934,683.450134 468.627380,684.532349 
z"/>
<path fill="#000000" opacity="1.000000" stroke="none" 
	d="
M637.200134,670.194946 
	C637.227417,676.733643 632.407043,679.672363 626.775146,676.998779 
	C626.341003,676.792725 625.732361,676.512634 625.619080,676.140869 
	C624.572021,672.702576 625.176575,669.243103 626.193726,665.982239 
	C626.648010,664.525940 634.787476,664.752014 636.183411,666.016113 
	C637.308716,667.035095 637.052368,668.443054 637.200134,670.194946 
z"/>
<path fill="#000000" opacity="1.000000" stroke="none" 
	d="
M461.264435,667.141174 
	C464.703918,667.778320 469.221741,665.004089 470.069214,670.614136 
	C471.104095,677.464966 467.180542,680.551697 460.601532,678.154846 
	C457.664154,677.084717 457.802094,670.132080 461.264435,667.141174 
z"/>
</svg>