<?xml version="1.0" encoding="UTF-8"?>
<svg version="1.1" xmlns="http://www.w3.org/2000/svg" width="1024" height="1024">
<path d="M0 0 C2.93423195 1.79646854 4.47205355 2.9441071 6 6 C6.10144249 7.68416409 6.13945362 9.3723105 6.14717102 11.05950928 C6.15432632 12.13059937 6.16148163 13.20168945 6.16885376 14.30523682 C6.17154266 15.48551453 6.17423157 16.66579224 6.17700195 17.88183594 C6.18357315 19.12094727 6.19014435 20.36005859 6.19691467 21.63671875 C6.21668579 25.75260659 6.2283188 29.86845541 6.23828125 33.984375 C6.24232872 35.40139028 6.24644564 36.81840535 6.25063133 38.23542023 C6.26968596 44.89360373 6.28391555 51.55177614 6.2922433 58.20998168 C6.30201262 65.89386052 6.32832269 73.57745106 6.36874419 81.26122832 C6.39891786 87.2010185 6.41371341 93.14072611 6.41702431 99.08059144 C6.41937373 102.62774837 6.42831909 106.1745974 6.45348549 109.72167206 C6.4811251 113.68140354 6.47693119 117.64075677 6.4699707 121.60058594 C6.48278076 122.77276672 6.49559082 123.94494751 6.50878906 125.15264893 C6.46887907 131.37362956 6.28639298 135.32107493 2 140 C-1.46527824 141.73263912 -5.21107028 141.4719774 -9 141 C-13.04241873 138.67775946 -14.72883943 136.449062 -16 132 C-16.37593066 130.0075675 -16.71979545 128.0081326 -17 126 C-17.4846875 126.51949219 -17.969375 127.03898437 -18.46875 127.57421875 C-27.83743086 137.32125018 -36.80688027 142.05783811 -50.5 142.375 C-60.70364358 142.12863436 -69.23130067 139.87123226 -77 133 C-89.86538135 118.64836521 -92.97359244 101.7468331 -92 83 C-90.74242079 70.51276986 -85.348591 58.07057518 -75.57421875 49.99609375 C-67.93701146 44.44492183 -61.28324972 41.42752221 -51.8125 41.5 C-50.97823486 41.50354492 -50.14396973 41.50708984 -49.28442383 41.51074219 C-38.34964119 41.80236457 -29.31006484 46.17266833 -21.25 53.5 C-19.31253837 55.65273514 -18.08212894 57.34386533 -17 60 C-16.34 60 -15.68 60 -15 60 C-15.01110306 59.32205887 -15.02220612 58.64411774 -15.03364563 57.94563293 C-15.14426787 50.88926366 -15.21967988 43.8331407 -15.2746582 36.77612305 C-15.29980157 34.14255773 -15.33392084 31.50906218 -15.37719727 28.87573242 C-15.4378521 25.09015691 -15.4662127 21.30550402 -15.48828125 17.51953125 C-15.51408768 16.34227982 -15.5398941 15.16502838 -15.56648254 13.95210266 C-15.56960697 4.84522424 -15.56960697 4.84522424 -12.62573242 1.75683594 C-8.44305942 -1.04172426 -4.8514515 -0.88425471 0 0 Z " fill="#065FAC" transform="translate(624,334)"/>
<path d="M0 0 C0 0.66 0 1.32 0 2 C1.0209375 2.12375 1.0209375 2.12375 2.0625 2.25 C10.70893119 4.45759945 16.13035544 10.35986373 20.703125 17.75390625 C21.13109375 18.49511719 21.5590625 19.23632812 22 20 C22.70962891 19.03900391 22.70962891 19.03900391 23.43359375 18.05859375 C29.88857607 9.61552721 37.05057726 1.72723288 48 0 C59.91018365 -0.93965946 70.64007281 -0.57876844 80.375 7.1875 C88.52709621 15.02219902 91.02209893 24.58101298 91.2746582 35.63378906 C91.29446135 38.1776722 91.30257299 40.72166542 91.30078125 43.265625 C91.30467652 44.63084033 91.30901288 45.99605447 91.31376648 47.36126709 C91.32118225 50.20540319 91.32096926 53.04941501 91.31567383 55.89355469 C91.309853 59.53065397 91.32689481 63.16724833 91.3500185 66.80426407 C91.36476572 69.61646474 91.36562678 72.42854358 91.36250877 75.24077606 C91.36326805 77.2310358 91.3771132 79.22127672 91.39118958 81.21148682 C91.38496078 82.42334656 91.37873199 83.6352063 91.37231445 84.88378906 C91.37294388 85.9469635 91.3735733 87.01013794 91.3742218 88.10552979 C90.81172033 92.45627513 89.13895815 95.08250594 85.75 97.8125 C82.20428349 99.34360486 79.82985513 99.47873189 76 99 C73.24670979 97.20437595 71.47372539 95.94745078 70 93 C69.89544965 91.14347428 69.85399693 89.28325851 69.84228516 87.42382812 C69.83202301 86.25501099 69.82176086 85.08619385 69.81118774 83.88195801 C69.80388641 82.61122437 69.79658508 81.34049072 69.7890625 80.03125 C69.76817604 78.03643178 69.74727193 76.04161358 69.72536278 74.04680634 C69.67228757 69.12437285 69.62818573 64.20192856 69.59863281 59.27929688 C69.58163913 56.52260604 69.55684572 53.76618833 69.52377319 51.00964355 C69.49299992 48.41641327 69.4734297 45.82301841 69.46670532 43.22961426 C69.35105854 34.8943283 69.03849961 26.75814426 63.625 20.0625 C58.31843974 15.8930598 54.48395664 14.41595225 47.6875 14.4375 C46.55018433 14.44003784 46.55018433 14.44003784 45.38989258 14.44262695 C39.98206595 14.61692254 36.44637278 15.5193855 32.4375 19.3671875 C31.963125 19.90601563 31.48875 20.44484375 31 21 C30.236875 21.763125 29.47375 22.52625 28.6875 23.3125 C23.76327578 31.15478301 23.5706682 39.12119315 23.59375 48.171875 C23.57749573 50.0327475 23.57749573 50.0327475 23.56091309 51.93121338 C23.52100955 56.54021727 23.50687716 61.14909072 23.49468994 65.75823975 C23.48130819 70.29216947 23.44597387 74.82561164 23.40625 79.359375 C23.40927124 80.5521405 23.41229248 81.74490601 23.41540527 82.97381592 C23.40529419 84.0855719 23.39518311 85.19732788 23.38476562 86.34277344 C23.38271118 87.31712341 23.38065674 88.29147339 23.37854004 89.29534912 C22.93061232 92.49577172 21.8621147 94.3824721 20 97 C16.57823311 99.56632517 13.15359579 99.36435051 9 99 C5.17981112 97.30213828 3.50768067 95.86123796 2 92 C1.74171448 89.30171204 1.74171448 89.30171204 1.72875977 86.1809082 C1.71347984 84.42306755 1.71347984 84.42306755 1.69789124 82.62971497 C1.69468117 80.73439278 1.69468117 80.73439278 1.69140625 78.80078125 C1.67268368 76.80680876 1.65394402 74.81283627 1.63422298 72.81887341 C1.58896075 67.91067674 1.56533828 63.00234294 1.54370117 58.09399414 C1.53083123 55.33973496 1.51006182 52.58572872 1.48143005 49.83158875 C1.45532017 47.24282842 1.44129451 44.65390969 1.4410553 42.0650177 C1.35450685 34.35893873 1.08131728 26.93541376 -3.83203125 20.66015625 C-9.64413278 15.9714984 -14.201808 13.52509947 -21.921875 13.74609375 C-27.86193836 14.47185337 -33.46576356 17.17108923 -38 21 C-42.42690891 27.37714175 -44.10672775 32.97793812 -44.15771484 40.72070312 C-44.17310806 42.40770325 -44.17310806 42.40770325 -44.18881226 44.12878418 C-44.19611359 45.3340979 -44.20341492 46.53941162 -44.2109375 47.78125 C-44.23899469 50.33985027 -44.26765906 52.89844395 -44.296875 55.45703125 C-44.33820451 59.48616614 -44.37615764 63.51516898 -44.40136719 67.54443359 C-44.42893079 71.43612978 -44.47478926 75.32726798 -44.5234375 79.21875 C-44.52669037 80.42406372 -44.52994324 81.62937744 -44.53329468 82.87121582 C-44.54986115 83.99588257 -44.56642761 85.12054932 -44.58349609 86.27929688 C-44.59158295 87.26571167 -44.5996698 88.25212646 -44.60800171 89.26843262 C-45.07010663 92.48852507 -46.09869223 94.38049548 -48 97 C-51.91757588 99.2852526 -55.53237352 99.47867427 -60 99 C-62.75329021 97.20437595 -64.52627461 95.94745078 -66 93 C-66.11923867 90.28074126 -66.17835768 87.58630637 -66.19287109 84.8659668 C-66.20104858 84.02514557 -66.20922607 83.18432434 -66.21765137 82.31802368 C-66.24251551 79.52842933 -66.25902363 76.73888588 -66.2734375 73.94921875 C-66.27876118 72.99746073 -66.28408485 72.04570271 -66.28956985 71.06510353 C-66.31630539 66.02786692 -66.33567932 60.99065514 -66.35009766 55.95336914 C-66.36674998 50.7476911 -66.41153147 45.54264561 -66.4624691 40.33720684 C-66.49610712 36.33691166 -66.50767128 32.33676727 -66.51332474 28.33634377 C-66.52004635 26.41736833 -66.53529201 24.49840313 -66.55921555 22.57956505 C-66.59079763 19.89325621 -66.59091465 17.20866216 -66.58349609 14.5222168 C-66.59990143 13.72982101 -66.61630676 12.93742523 -66.63320923 12.12101746 C-66.58731966 8.06073541 -66.17941241 6.22562672 -63.61978149 3.00666809 C-59.99900599 0.23327089 -57.78425374 0.34974982 -53.37890625 0.56640625 C-50.05060079 1.17304321 -48.25622731 2.52542811 -46 5 C-44.67770811 7.64458379 -44.90322806 9.67761301 -44.9375 12.625 C-44.94652344 13.62789063 -44.95554688 14.63078125 -44.96484375 15.6640625 C-44.97644531 16.43492187 -44.98804688 17.20578125 -45 18 C-44.34 18 -43.68 18 -43 18 C-42.814375 17.319375 -42.62875 16.63875 -42.4375 15.9375 C-38.5843352 8.0636415 -31.02017346 3.25756505 -23 0.25 C-15.47234591 -1.93544796 -7.63115593 -1.32715755 0 0 Z " fill="#0460AE" transform="translate(250,376)"/>
<path d="M0 0 C10.26759723 10.55280827 10.56073967 23.2979123 10.5859375 37.30078125 C10.5959227 39.2537336 10.5959227 39.2537336 10.60610962 41.24613953 C10.61798254 43.97996348 10.62180008 46.71366191 10.62060547 49.44750977 C10.62040099 52.93885751 10.6478783 56.42940305 10.68214989 59.92055988 C10.70977443 63.27647905 10.70856651 66.63224993 10.7109375 69.98828125 C10.72530853 71.2352327 10.73967957 72.48218414 10.75448608 73.766922 C10.69733501 84.59003581 10.69733501 84.59003581 6.25 89.3125 C2.5126144 91.8040904 0.67668417 91.77043285 -3.75 91.3125 C-7.20237357 89.66477625 -8.43558097 88.19009528 -9.72265625 84.59765625 C-10.483533 81.84788305 -11.15819382 79.10313075 -11.75 76.3125 C-12.306875 76.91578125 -12.86375 77.5190625 -13.4375 78.140625 C-18.16364178 83.09030051 -22.27557217 86.97746046 -28.75 89.3125 C-29.57113281 89.60898437 -30.39226562 89.90546875 -31.23828125 90.2109375 C-38.44523883 92.4846231 -45.23937865 92.63489551 -52.75 92.3125 C-52.75 91.6525 -52.75 90.9925 -52.75 90.3125 C-54.06484375 90.40144531 -54.06484375 90.40144531 -55.40625 90.4921875 C-61.22808652 90.1793318 -65.37439657 86.98696816 -69.75 83.3125 C-76.85370784 74.16336655 -77.50959145 65.47519179 -76.75 54.3125 C-74.93389796 46.65479584 -68.69317676 41.94347151 -62.40234375 37.74609375 C-59.41076847 36.12914511 -56.50855865 35.15440876 -53.25 34.1875 C-52.1465625 33.85492187 -51.043125 33.52234375 -49.90625 33.1796875 C-44.62421344 31.72843488 -39.97978858 31.1922128 -34.48046875 31.21484375 C-33.79946609 31.2162587 -33.11846344 31.21767365 -32.41682434 31.21913147 C-30.25700353 31.22469702 -28.09728911 31.23724297 -25.9375 31.25 C-24.46679838 31.25501946 -22.99609512 31.25958159 -21.52539062 31.26367188 C-17.9335596 31.27465512 -14.3417902 31.29189578 -10.75 31.3125 C-10.87435458 29.05420587 -11.00916131 26.7964855 -11.1484375 24.5390625 C-11.22239746 23.28174316 -11.29635742 22.02442383 -11.37255859 20.72900391 C-11.83883559 16.50838273 -12.73899877 14.32350123 -15.75 11.3125 C-24.86041084 4.66904126 -36.08459341 5.73490861 -46.75 7.3125 C-51.00049768 8.41820379 -54.88828325 10.23796614 -58.75 12.3125 C-61.51250036 13.69375018 -63.69731099 13.50329306 -66.75 13.3125 C-68.75 11.3125 -68.75 11.3125 -69.3125 7.5625 C-69.23412002 5.01745585 -69.01331341 3.68503345 -67.53515625 1.59375 C-50.15682973 -14.43520057 -18.56856729 -11.39434811 0 0 Z " fill="#FE902E" transform="translate(458.75,557.6875)"/>
<path d="M0 0 C9.18399835 7.30084411 14.97079726 17.04138624 16.74609375 28.68359375 C16.82988281 29.44800781 16.91367187 30.21242188 17 31 C17.09410156 31.73347656 17.18820312 32.46695313 17.28515625 33.22265625 C17.55787071 36.96373925 17.22575972 38.70812412 14.91548157 41.69499207 C11.29010516 44.56124973 9.49361972 44.60829147 4.91479492 44.56762695 C3.87494446 44.56872215 3.87494446 44.56872215 2.81408691 44.56983948 C0.53540258 44.56637138 -1.74120662 44.52755321 -4.01953125 44.48828125 C-5.60421126 44.47895021 -7.18890573 44.47183547 -8.77360535 44.46684265 C-12.93488726 44.44779537 -17.09528993 44.3987154 -21.25622559 44.34332275 C-25.50598253 44.29208052 -29.75588222 44.26931807 -34.00585938 44.24414062 C-42.33764208 44.19059333 -50.66871152 44.10530942 -59 44 C-58.71026482 45.73405842 -58.41325626 47.46690236 -58.11328125 49.19921875 C-57.94868408 50.16432373 -57.78408691 51.12942871 -57.61450195 52.1237793 C-56.0264522 59.55676069 -52.60278243 66.69869398 -46.30078125 71.21875 C-37.16274173 76.76896923 -24.42526723 76.26667679 -14.17578125 74.24609375 C-9.50400738 72.86246734 -5.22948809 71.28642753 -1.0625 68.75 C2.34598079 66.80229669 4.14195238 66.3862197 8 67 C9.875 68.1875 9.875 68.1875 11 70 C11.76893079 73.55630491 11.09169777 74.85634016 9.125 77.9375 C1.15286109 86.64862931 -12.12238232 91.5692575 -23.71484375 92.203125 C-40.28366082 92.51366748 -54.71117373 90.06990509 -67.25 78.4375 C-77.13463442 68.01771022 -81.36064527 56.31332212 -81.3125 42.1875 C-81.32861328 41.25357422 -81.34472656 40.31964844 -81.36132812 39.35742188 C-81.37076883 25.75336094 -76.04995271 14.04161624 -66.75 4.125 C-48.68158044 -12.77969084 -20.17188259 -13.81137907 0 0 Z " fill="#FE902E" transform="translate(731,558)"/>
<path d="M0 0 C8.84198667 5.3326671 14.63847093 12.56578696 17.25 22.5625 C18.00582118 28.91348036 17.81401146 35.35390986 17.78125 41.73828125 C17.78394859 43.59531355 17.78783405 45.45234446 17.79284668 47.30937195 C17.79871715 51.18335549 17.79025341 55.05696804 17.77148438 58.9309082 C17.74861616 63.89198475 17.76188292 68.85219933 17.78577423 73.81324482 C17.80023067 77.64029945 17.79562832 81.46714964 17.78526306 85.29421043 C17.78259948 87.12382294 17.78585255 88.95345415 17.79518127 90.78304482 C17.80535335 93.33673984 17.78984126 95.88903604 17.76757812 98.44262695 C17.77567505 99.19440216 17.78377197 99.94617737 17.79211426 100.72073364 C17.73377361 104.33730711 17.34203615 106.41557969 15.40515137 109.50749207 C12.03342445 112.72254492 8.82185918 112.89753093 4.25390625 112.85546875 C1.10492778 112.39509178 -0.584621 110.79349654 -2.75 108.5625 C-4.23386721 105.59476558 -3.89936692 102.90526919 -3.92358398 99.59350586 C-3.930271 98.87615265 -3.93695801 98.15879944 -3.94384766 97.41970825 C-3.95791345 95.85863389 -3.96980262 94.29753877 -3.97979546 92.73643303 C-3.99621161 90.25956168 -4.01945428 87.78284174 -4.04469299 85.30604553 C-4.11541907 78.26245703 -4.1753333 71.21880369 -4.22680664 64.17504883 C-4.25876645 59.86731964 -4.30009391 55.55975971 -4.34700203 51.25216866 C-4.3629327 49.61568847 -4.37529507 47.97916926 -4.38390923 46.3426342 C-3.80447699 31.20158095 -3.80447699 31.20158095 -10.0625 18.125 C-10.92294922 17.16787109 -10.92294922 17.16787109 -11.80078125 16.19140625 C-17.9850768 11.02336768 -26.16366892 11.91318239 -33.75 12.5625 C-39.45956875 14.16501762 -43.58919804 18.71803332 -46.75 23.5625 C-50.00498843 31.07910027 -50.15093064 38.50587843 -50.0859375 46.578125 C-50.09843916 49.07031516 -50.11147577 51.56250268 -50.125 54.0546875 C-50.12894128 57.94768504 -50.12489567 61.84042496 -50.11035156 65.73339844 C-50.10179293 69.51536298 -50.12342971 73.29625504 -50.1484375 77.078125 C-50.13509369 78.24071838 -50.12174988 79.40331177 -50.10800171 80.60113525 C-50.19033893 89.59895377 -50.19033893 89.59895377 -53.13134766 93.29956055 C-56.77196736 96.44564521 -58.77071755 96.25459587 -63.375 95.953125 C-66.49407905 95.44011858 -68.39747434 94.69447638 -70.75 92.5625 C-72.98987002 88.29369525 -73.05221079 84.18584766 -73.05639648 79.47094727 C-73.06472 78.67030853 -73.07304352 77.8696698 -73.08161926 77.04476929 C-73.10565527 74.4060984 -73.11448261 71.76767489 -73.12109375 69.12890625 C-73.13006352 67.28954496 -73.13918543 65.4501844 -73.14845276 63.61082458 C-73.16492688 59.75835397 -73.17264025 55.90597011 -73.17553711 52.0534668 C-73.18092552 47.1225604 -73.21863106 42.19247141 -73.26428127 37.261796 C-73.29405235 33.46389296 -73.30126064 29.666187 -73.30226326 25.86817741 C-73.30646389 24.05051865 -73.31889194 22.23285921 -73.33978081 20.41531563 C-73.3667028 17.87075029 -73.36186884 15.32808332 -73.34936523 12.78344727 C-73.36419952 12.03676285 -73.37903381 11.29007843 -73.39431763 10.52076721 C-73.33985502 6.6194585 -72.76673074 4.10506079 -70.36878967 1.09190369 C-67.75 -1.4375 -67.75 -1.4375 -65.25 -2.12890625 C-56.59615385 -1.68269231 -56.59615385 -1.68269231 -52.75 1.5625 C-50.64172945 4.72490582 -50.41182535 6.06907469 -50.125 9.75 C-50.05023438 10.65105469 -49.97546875 11.55210937 -49.8984375 12.48046875 C-49.84945313 13.16753906 -49.80046875 13.85460937 -49.75 14.5625 C-49.34910156 14.05460937 -48.94820313 13.54671875 -48.53515625 13.0234375 C-36.67782562 -1.33441864 -17.74020465 -8.15641593 0 0 Z " fill="#0560AE" transform="translate(491.75,378.4375)"/>
<path d="M0 0 C1.06069702 0.00845947 1.06069702 0.00845947 2.14282227 0.01708984 C12.15633446 0.24676277 20.68386927 2.6708413 28.375 9.3125 C37.24124039 18.68316544 37.84145669 28.4829349 37.80859375 40.79296875 C37.81316139 42.29413589 37.81846869 43.79530095 37.82447815 45.29646301 C37.83337468 48.42909289 37.83102329 51.5614673 37.82104492 54.6940918 C37.80951886 58.70240607 37.82983877 62.70984408 37.85896206 66.71804333 C37.87732322 69.81250061 37.87703255 72.9067474 37.87132454 76.0012455 C37.87117153 77.47919259 37.87719916 78.95715412 37.88961601 80.43504906 C37.90453603 82.50047115 37.89384734 84.56426668 37.87670898 86.62963867 C37.87654282 87.80241867 37.87637665 88.97519867 37.87620544 90.18351746 C37.27241484 93.95293032 36.01545381 95.60750172 33.375 98.3125 C30.97956179 99.5102191 29.23530046 99.6177625 26.5625 99.75 C25.71042969 99.81058594 24.85835937 99.87117187 23.98046875 99.93359375 C20.89259122 99.197503 19.39331174 97.95413675 17.43431091 95.47880554 C15.04003467 90.58247734 15.74090829 84.80702282 15.80859375 79.48046875 C15.80562926 78.12054084 15.79989046 76.76061643 15.79151917 75.40071106 C15.77083982 71.10024879 15.79038925 66.80042023 15.8125 62.5 C15.83369824 57.52245898 15.83798101 52.54557672 15.81199837 47.56804848 C15.8086712 45.58903905 15.83024041 43.61003743 15.85240173 41.63114929 C15.83050294 34.16119744 14.93645693 28.86479746 11.375 22.3125 C10.88 20.8275 10.88 20.8275 10.375 19.3125 C8.59271064 18.17040183 8.59271064 18.17040183 6.375 17.3125 C5.66472656 16.9721875 4.95445312 16.631875 4.22265625 16.28125 C-2.10502566 14.12862296 -10.8932819 14.06301591 -17.23828125 16.1875 C-23.46249958 19.8616017 -28.30675425 25.48292459 -30.625 32.3125 C-30.91579023 35.23864926 -30.91579023 35.23864926 -30.86450195 38.38452148 C-30.8700988 40.18680458 -30.8700988 40.18680458 -30.87580872 42.02549744 C-30.87167465 43.31516922 -30.86754059 44.604841 -30.86328125 45.93359375 C-30.86930533 47.27971674 -30.87691412 48.62583349 -30.8860321 49.97193909 C-30.92303295 55.67215622 -30.94170644 61.37217569 -30.93041992 67.07250977 C-30.92455154 70.56693992 -30.94290767 74.0605615 -30.97630882 77.55482674 C-30.98807084 79.52337817 -30.97295553 81.4920313 -30.95735168 83.46055603 C-31.06643427 93.42505612 -31.06643427 93.42505612 -33.98120117 97.12231445 C-37.10041102 99.70634174 -38.60863887 100.12397492 -42.625 100.0625 C-43.635625 100.07796875 -44.64625 100.0934375 -45.6875 100.109375 C-49.66312848 99.03088004 -51.62425271 96.78847521 -53.625 93.3125 C-54.11096359 90.29221468 -54.31137866 87.84229738 -54.27197266 84.83203125 C-54.28511505 83.58696304 -54.28511505 83.58696304 -54.29852295 82.31674194 C-54.3204466 79.58562224 -54.30598989 76.85613482 -54.2890625 74.125 C-54.29243267 72.2198048 -54.29728697 70.31461169 -54.30355835 68.40942383 C-54.31092013 64.42150348 -54.30024659 60.43414407 -54.27685547 56.44628906 C-54.24836807 51.3415512 -54.26477578 46.23812778 -54.29471779 41.13343811 C-54.31280956 37.2007868 -54.30702412 33.26844571 -54.29407883 29.33578491 C-54.29075001 27.45396773 -54.29481342 25.57212212 -54.30647659 23.69033813 C-54.3192165 21.0571259 -54.29976604 18.42602427 -54.27197266 15.79296875 C-54.28209381 15.01980316 -54.29221497 14.24663757 -54.30264282 13.45004272 C-54.18913198 7.62766602 -52.67121266 5.21003231 -48.625 1.3125 C-45.19822655 0.25351296 -42.11258822 0.54924188 -38.625 1.3125 C-35.51148721 3.0193052 -33.23750087 5.08749825 -31.625 8.3125 C-31.40032169 9.84918865 -31.21703195 11.39218054 -31.0625 12.9375 C-30.93681641 14.16339844 -30.93681641 14.16339844 -30.80859375 15.4140625 C-30.74800781 16.04054688 -30.68742188 16.66703125 -30.625 17.3125 C-30.16351562 16.73242188 -29.70203125 16.15234375 -29.2265625 15.5546875 C-21.50980871 6.31288356 -12.33097226 -0.10255056 0 0 Z " fill="#FE8D2C" transform="translate(590.625,549.6875)"/>
<path d="M0 0 C5.57894737 3.15789474 5.57894737 3.15789474 7 6 C7.08573394 8.25120742 7.10712188 10.50499303 7.09765625 12.7578125 C7.0962413 13.42086395 7.09482635 14.08391541 7.09336853 14.76705933 C7.08776754 16.88641863 7.075215 19.00567259 7.0625 21.125 C7.05748512 22.56119639 7.05292219 23.99739444 7.04882812 25.43359375 C7.03779782 28.95576345 7.02053259 32.47787145 7 36 C7.58491211 35.97905273 8.16982422 35.95810547 8.77246094 35.93652344 C11.43146465 35.85319885 14.09019355 35.80129103 16.75 35.75 C17.67039062 35.71648438 18.59078125 35.68296875 19.5390625 35.6484375 C26.3571564 35.54962454 26.3571564 35.54962454 29.609375 37.828125 C31.51379541 40.80244452 31.57770815 42.53375108 31 46 C29.640625 48.171875 29.640625 48.171875 27 50 C23.40596646 50.49815261 19.86942588 50.37530636 16.25 50.25 C15.26644531 50.23195313 14.28289062 50.21390625 13.26953125 50.1953125 C10.84536217 50.14824126 8.42317941 50.08250742 6 50 C6.06149814 57.2766818 6.13880709 64.55302023 6.23571491 71.82932186 C6.28024029 75.20886234 6.31953406 78.58828722 6.34643555 81.96801758 C6.38013115 85.86308611 6.43245705 89.75753703 6.48828125 93.65234375 C6.49467117 94.8526976 6.5010611 96.05305145 6.50764465 97.28977966 C6.63453002 104.60068116 6.86570018 112.16918911 11.6875 118.0625 C15.10449352 119.44776764 18.38919059 119.19623964 22 119 C29.24374776 118.60631806 29.24374776 118.60631806 32.46875 120.28515625 C34 122 34 122 34.5 125.4375 C34 129 34 129 32.625 131.25 C24.40012907 136.73324729 13.94280651 137.35495014 4.41796875 135.49609375 C-1.63241643 133.69231623 -6.98251078 131.07850039 -10.5078125 125.69921875 C-15.4978609 116.30367047 -15.13917181 107.41468915 -15.09765625 96.97265625 C-15.0957884 95.61502637 -15.09436623 94.25739581 -15.09336853 92.89976501 C-15.08957222 89.34717916 -15.07976696 85.79463496 -15.06866455 82.24206543 C-15.05838801 78.60864831 -15.0538576 74.97522438 -15.04882812 71.34179688 C-15.03814177 64.22784767 -15.02110049 57.11392657 -15 50 C-16.04800781 50.03480469 -17.09601563 50.06960938 -18.17578125 50.10546875 C-19.55467147 50.13360937 -20.93357902 50.16090924 -22.3125 50.1875 C-23.00279297 50.21263672 -23.69308594 50.23777344 -24.40429688 50.26367188 C-29.52485228 50.33788282 -29.52485228 50.33788282 -31.95556641 48.609375 C-33.25218255 46.61141015 -33.401954 45.37195184 -33.375 43 C-33.38273438 42.319375 -33.39046875 41.63875 -33.3984375 40.9375 C-33 39 -33 39 -31.98828125 37.26171875 C-28.81313323 35.24684093 -25.44355401 35.68882218 -21.8125 35.8125 C-20.68811523 35.83280273 -20.68811523 35.83280273 -19.54101562 35.85351562 C-17.69370233 35.88881461 -15.84675934 35.94262083 -14 36 C-14.01160156 34.82824219 -14.02320313 33.65648437 -14.03515625 32.44921875 C-14.21520884 7.95162931 -14.21520884 7.95162931 -10.5625 3.375 C-6.89969171 -0.01979793 -4.97278574 -0.47815248 0 0 Z " fill="#FE8E2C" transform="translate(264,514)"/>
<path d="M0 0 C1.1263205 0.71630032 2.23419197 1.46327526 3.3125 2.25 C4.199375 2.78625 5.08625 3.3225 6 3.875 C13.7325912 11.81658015 14.51608667 21.2605866 14.5625 31.75 C14.583125 32.884375 14.60375 34.01875 14.625 35.1875 C14.67160806 45.34805795 13.23008793 54.79630296 7.3125 63.25 C1.04266466 69.38050566 -4.03364916 71.41243007 -12.625 71.6875 C-19.8924983 71.48733585 -24.50699975 70.52707414 -29.6171875 65.26171875 C-39.79919169 53.03063903 -39.48793247 38.4137485 -38.6875 23.25 C-37.62974585 14.61765048 -34.88836133 7.55892618 -28.0703125 1.91015625 C-20.84134435 -3.14292845 -8.00715481 -3.92658553 0 0 Z " fill="#FBFCFD" transform="translate(593.6875,391.75)"/>
<path d="M0 0 C1.11246094 -0.01675781 2.22492188 -0.03351562 3.37109375 -0.05078125 C6.88313763 0.34899853 8.74830276 1.2133438 11.5625 3.3125 C13.10836876 6.40423752 12.85609521 8.90679552 12.5625 12.3125 C10.69541495 14.67747439 9.24188569 15.97280715 6.5625 17.3125 C4.21025741 17.57999854 1.85563146 17.82670106 -0.5 18.0625 C-7.84891814 18.95768407 -14.1800813 20.35481497 -19.0546875 26.27734375 C-22.48418607 31.4797187 -23.5605592 35.69374726 -23.56347656 41.91967773 C-23.56728333 43.04442001 -23.57109009 44.16916229 -23.57501221 45.32798767 C-23.57603943 46.53846268 -23.57706665 47.74893768 -23.578125 48.99609375 C-23.59644636 51.55795165 -23.61601604 54.11980087 -23.63671875 56.68164062 C-23.66708801 60.72182368 -23.68981703 64.76169388 -23.68798828 68.80200195 C-23.68704934 72.70037771 -23.72582055 76.59791477 -23.765625 80.49609375 C-23.7585553 81.70454453 -23.7514856 82.9129953 -23.74420166 84.1580658 C-23.87991918 93.48315001 -23.87991918 93.48315001 -26.91699219 96.55102539 C-27.74875977 97.13231201 -28.58052734 97.71359863 -29.4375 98.3125 C-29.7675 98.6425 -30.0975 98.9725 -30.4375 99.3125 C-32.765625 99.62109375 -32.765625 99.62109375 -35.6875 99.75 C-36.64140625 99.81058594 -37.5953125 99.87117187 -38.578125 99.93359375 C-41.96365056 99.1982132 -43.26584699 97.83049977 -45.38184738 95.14793396 C-47.2530715 91.89448842 -47.13213578 88.47306739 -47.08447266 84.83203125 C-47.09761505 83.58696304 -47.09761505 83.58696304 -47.11102295 82.31674194 C-47.1329466 79.58562224 -47.11848989 76.85613482 -47.1015625 74.125 C-47.10493267 72.2198048 -47.10978697 70.31461169 -47.11605835 68.40942383 C-47.12342013 64.42150348 -47.11274659 60.43414407 -47.08935547 56.44628906 C-47.06086807 51.3415512 -47.07727578 46.23812778 -47.10721779 41.13343811 C-47.12530956 37.2007868 -47.11952412 33.26844571 -47.10657883 29.33578491 C-47.10325001 27.45396773 -47.10731342 25.57212212 -47.11897659 23.69033813 C-47.1317165 21.0571259 -47.11226604 18.42602427 -47.08447266 15.79296875 C-47.09459381 15.01980316 -47.10471497 14.24663757 -47.11514282 13.45004272 C-47.00163198 7.62766602 -45.48371266 5.21003231 -41.4375 1.3125 C-38.00042703 0.25033007 -34.9403066 0.58952072 -31.4375 1.3125 C-27.41493126 3.46744754 -25.99105395 4.55241341 -24.6328125 8.87109375 C-24.11928941 11.35077718 -23.72080182 13.79697523 -23.4375 16.3125 C-22.90962891 15.55066406 -22.90962891 15.55066406 -22.37109375 14.7734375 C-16.46083644 6.53302653 -10.6249846 0.03684966 0 0 Z " fill="#FE8E2D" transform="translate(360.4375,549.6875)"/>
<path d="M0 0 C1.40378906 -0.02126953 1.40378906 -0.02126953 2.8359375 -0.04296875 C6.52167796 0.26159524 9.35553479 1.35578141 12.4375 3.375 C14.41863411 6.39883627 14.10886973 8.67944447 13.625 12.1875 C12 15.0625 12 15.0625 8.625 17.1875 C5.15009561 17.58187755 1.70098828 17.69691094 -1.79296875 17.8359375 C-9.50577205 18.59291929 -15.24995323 22.24490601 -20.12109375 28.1484375 C-24.61663946 35.45895108 -24.77820464 41.44342413 -24.7109375 49.91015625 C-24.72344444 52.412112 -24.7364813 54.91406514 -24.75 57.41601562 C-24.75393654 61.3419713 -24.74993436 65.26767189 -24.73535156 69.19360352 C-24.72678855 72.99534101 -24.74844582 76.79601263 -24.7734375 80.59765625 C-24.76009369 81.7696608 -24.74674988 82.94166534 -24.73300171 84.14918518 C-24.81537505 93.23103391 -24.81537505 93.23103391 -27.74267578 96.92456055 C-30.71611567 99.48074811 -31.99867581 100.00283131 -35.875 99.9375 C-37.25171875 99.96070313 -37.25171875 99.96070313 -38.65625 99.984375 C-42.47680219 98.86455798 -44.43613847 96.54355982 -46.375 93.1875 C-47.06884542 90.31283936 -47.06001493 87.54650588 -47.02197266 84.59936523 C-47.03073425 83.7579599 -47.03949585 82.91655457 -47.04852295 82.0496521 C-47.07044681 79.2812676 -47.05599102 76.51449315 -47.0390625 73.74609375 C-47.04243235 71.81608271 -47.04728637 69.88607374 -47.05355835 67.95606995 C-47.06091989 63.91687762 -47.05024613 59.87823915 -47.02685547 55.83911133 C-46.998349 50.66477927 -47.01478808 45.49174285 -47.04471779 40.31745815 C-47.06279385 36.33423617 -47.05703164 32.35132095 -47.04407883 28.36808968 C-47.04074666 26.46032622 -47.04482523 24.55253479 -47.05647659 22.644804 C-47.06919265 19.97786646 -47.04979994 17.31302203 -47.02197266 14.64624023 C-47.03209381 13.86012863 -47.04221497 13.07401703 -47.05264282 12.26408386 C-46.97445877 8.21470819 -46.54316322 6.39695403 -43.97494507 3.19813538 C-40.55216459 0.55117041 -38.76276076 0.51852646 -34.59375 0.76171875 C-30.4215443 1.5623709 -27.53214698 3.58953512 -25.0625 7 C-24.11207935 10.0240657 -23.73760393 13.04493264 -23.375 16.1875 C-22.9625 15.60742188 -22.55 15.02734375 -22.125 14.4296875 C-16.23498986 6.462397 -10.39266956 0.07118267 0 0 Z " fill="#FE8D2B" transform="translate(816.375,549.8125)"/>
<path d="M0 0 C0.95559372 0.00021737 1.91118744 0.00043474 2.89573854 0.00065869 C4.54669105 -0.0062395 4.54669105 -0.0062395 6.23099613 -0.01327705 C7.45013704 -0.00813349 8.66927795 -0.00298993 9.92536253 0.0023095 C11.2126848 -0.00010491 12.50000708 -0.00251933 13.82633913 -0.00500691 C17.41142542 -0.01144407 20.99639946 -0.00533411 24.58147842 0.00275737 C28.4431246 0.00931642 32.30475786 0.00438984 36.16640562 0.00087517 C43.73578091 -0.00417506 51.30511264 0.00148501 58.87448252 0.01072548 C67.68047106 0.02109068 76.48645008 0.02103979 85.29244357 0.0205529 C100.99878202 0.02005188 116.70510014 0.02922487 132.41143125 0.04373711 C147.66924752 0.05782774 162.92704589 0.06490782 178.18486875 0.06424493 C179.59458789 0.06418499 179.59458789 0.06418499 181.0327862 0.06412385 C181.97093784 0.06408349 182.90908948 0.06404314 183.87566996 0.06400156 C201.22207894 0.06331253 218.56848028 0.06919682 235.91488679 0.07815478 C242.06047452 0.08117697 248.20606084 0.08223503 254.35164922 0.08268708 C261.83509683 0.08336772 269.31853157 0.08781151 276.80197371 0.09701989 C280.62379388 0.10165137 284.44559754 0.10467844 288.26742071 0.10342568 C292.40081567 0.10213644 296.5341613 0.10855172 300.66755003 0.11583489 C301.88892166 0.11428629 303.11029329 0.11273769 304.36867619 0.11114216 C305.46670344 0.1143666 306.5647307 0.11759105 307.69603151 0.12091321 C308.65146288 0.12161763 309.60689424 0.12232206 310.59127808 0.12304783 C312.73296446 0.24954766 312.73296446 0.24954766 313.73296446 1.24954766 C313.92046446 3.68704766 313.92046446 3.68704766 313.73296446 6.24954766 C311.73296446 8.24954766 311.73296446 8.24954766 309.46477824 8.49794465 C308.50864245 8.49718521 307.55250666 8.49642577 306.56739706 8.49564332 C304.9155195 8.50161646 304.9155195 8.50161646 303.23027068 8.50771028 C302.01044765 8.5018846 300.79062462 8.49605891 299.53383726 8.49005669 C298.24580942 8.49176554 296.95778157 8.49347439 295.63072258 8.49523503 C292.04370097 8.4997242 288.45679794 8.49168347 284.86979145 8.4816789 C281.0061231 8.47306919 277.14246184 8.4759628 273.2787866 8.47748345 C266.58077107 8.47853388 259.8827944 8.47224084 253.18478864 8.46100777 C243.50051509 8.44477705 233.81626039 8.43954726 224.13197471 8.43703179 C208.42116115 8.43265087 192.71036832 8.419331 176.99956602 8.40042657 C161.73491864 8.38207804 146.47027688 8.36791651 131.20562071 8.35941094 C130.26524255 8.35888549 129.32486439 8.35836005 128.35598992 8.35781868 C123.63854878 8.35520867 118.9211076 8.35268124 114.20366639 8.35019487 C75.04675123 8.32945 35.88985921 8.29421368 -3.26703554 8.24954766 C-3.89203554 5.37454766 -3.89203554 5.37454766 -4.26703554 2.24954766 C-2.26703554 0.24954766 -2.26703554 0.24954766 0 0 Z " fill="#FD8035" transform="translate(525.2670355439186,492.7504523396492)"/>
<path d="M0 0 C3.70390021 2.02666238 5.65363011 3.48044516 8 7 C8.20990009 9.71592041 8.30406479 12.33076866 8.30639648 15.0480957 C8.31888176 16.27787643 8.31888176 16.27787643 8.33161926 17.53250122 C8.35574426 20.24697602 8.36449489 22.96121056 8.37109375 25.67578125 C8.38005901 27.56284152 8.38918084 29.44990105 8.39845276 31.33695984 C8.41495268 35.29553963 8.42264455 39.25403476 8.42553711 43.21264648 C8.43091836 48.28036437 8.46858336 53.34728417 8.51428127 58.4147768 C8.5440552 62.31390777 8.55126076 66.21284677 8.55226326 70.11208153 C8.55646581 71.97997882 8.56890152 73.84787668 8.58978081 75.715662 C8.61669929 78.33227422 8.61186881 80.94703978 8.59936523 83.5637207 C8.61419952 84.33224869 8.62903381 85.10077667 8.64431763 85.89259338 C8.56522673 91.71782757 7.00551253 94.07545893 3 98 C0.59486979 99.20256511 -1.12853564 99.2703777 -3.8125 99.375 C-4.66457031 99.42398438 -5.51664062 99.47296875 -6.39453125 99.5234375 C-10.25679514 98.74751042 -11.57152389 97.0633762 -14 94 C-14.50469009 90.96293963 -14.70533352 88.48386088 -14.67871094 85.44946289 C-14.69068512 84.6000563 -14.7026593 83.75064972 -14.71499634 82.87550354 C-14.74713802 80.07408883 -14.74236948 77.27422408 -14.734375 74.47265625 C-14.7428251 72.52118903 -14.75246564 70.56972662 -14.76324463 68.61827087 C-14.77963286 64.53024546 -14.77692821 60.44276162 -14.76171875 56.35473633 C-14.7444331 51.12074261 -14.78157584 45.88875444 -14.83398056 40.65505314 C-14.86709056 36.62543973 -14.86765803 32.59630759 -14.85883331 28.56658745 C-14.85919289 26.63728992 -14.87046603 24.70796194 -14.89293671 22.77879524 C-14.92022093 20.07788279 -14.90275166 17.38075201 -14.87402344 14.67993164 C-14.89133514 13.88649353 -14.90864685 13.09305542 -14.92648315 12.27557373 C-14.85007636 8.91305835 -14.66133231 6.8192008 -12.50855255 4.15252495 C-8.40606449 0.46142763 -5.71332261 -1.03878593 0 0 Z " fill="#0863B1" transform="translate(502,550)"/>
<path d="M0 0 C3.70168385 1.68258357 5.96837463 3.48590134 8 7 C8.29538416 9.76549893 8.42039343 12.30506676 8.40405273 15.06982422 C8.41091599 15.8800705 8.41777924 16.69031677 8.42485046 17.52511597 C8.44314156 20.20181844 8.43927722 22.87793597 8.43359375 25.5546875 C8.43815499 27.41789948 8.44346039 29.28110978 8.44947815 31.14431763 C8.45841419 35.04989454 8.45598116 38.95526703 8.44604492 42.86083984 C8.43456434 47.86007344 8.45475016 52.85859974 8.48396206 57.8577404 C8.50233162 61.70627306 8.50202993 65.55463655 8.49632454 69.40320206 C8.49617136 71.24595251 8.50221252 73.08871447 8.51461601 74.93142319 C8.52953576 77.51185845 8.51884179 80.0909915 8.50170898 82.67138672 C8.51137695 83.42899292 8.52104492 84.18659912 8.53100586 84.96716309 C8.45961918 90.11570331 7.27084577 93.04905997 4 97 C0.3078813 99.46141247 -2.71354805 99.68650207 -7 99 C-10.55217772 96.83780487 -12.54863683 94.87058495 -14 91 C-14.20571213 88.27652109 -14.3040194 85.65410322 -14.30639648 82.93017578 C-14.31472 82.1199295 -14.32304352 81.30968323 -14.33161926 80.47488403 C-14.35570032 77.7983112 -14.36448884 75.12198214 -14.37109375 72.4453125 C-14.38006124 70.58210172 -14.3891831 68.71889168 -14.39845276 66.85568237 C-14.41493995 62.95015717 -14.42264243 59.04471767 -14.42553711 55.13916016 C-14.43092189 50.13984807 -14.4686069 45.1413436 -14.51428127 40.1422596 C-14.54405379 36.2937426 -14.5512607 32.44542009 -14.55226326 28.59679794 C-14.55646486 26.75401992 -14.56889679 24.91124128 -14.58978081 23.06857681 C-14.61670102 20.48798815 -14.61186883 17.90927164 -14.59936523 15.32861328 C-14.61419952 14.57100708 -14.62903381 13.81340088 -14.64431763 13.03283691 C-14.5646495 7.24553703 -12.97336701 4.90337846 -9 1 C-5.93570224 -0.53214888 -3.3834358 -0.22938548 0 0 Z " fill="#0962AE" transform="translate(383,376)"/>
<path d="M0 0 C0.88360921 0.00037972 1.76721842 0.00075944 2.67760366 0.00115067 C3.69326282 -0.00084038 4.70892198 -0.00283143 5.7553587 -0.00488281 C6.88471181 -0.00196997 8.01406492 0.00094287 9.17764086 0.00394398 C10.9613931 0.00266234 10.9613931 0.00266234 12.78118074 0.00135481 C16.09680114 -0.00001338 19.41236324 0.00313412 22.72797662 0.00813287 C26.29786289 0.01243405 29.86774723 0.01099119 33.43763536 0.0102306 C39.62764282 0.00970515 45.81763978 0.01285412 52.00764459 0.01846844 C60.95745435 0.02658064 69.90725901 0.02919837 78.85707205 0.03045643 C93.37603549 0.03264739 107.89499333 0.03930867 122.41395372 0.04875904 C136.52137531 0.05793202 150.62879538 0.06501341 164.73621935 0.06926686 C166.03964883 0.06966094 166.03964883 0.06966094 167.36941022 0.07006299 C171.72850432 0.07136798 176.08759842 0.0726317 180.44669253 0.07387489 C216.63443264 0.08424888 252.82216638 0.10186839 289.00990099 0.1241985 C289.63490099 2.4991985 289.63490099 2.4991985 290.00990099 5.1241985 C287.49933977 7.63475972 286.71017931 7.37459917 283.24035448 7.37588078 C282.22742106 7.38109627 281.21448765 7.38631177 280.17085928 7.39168531 C278.48908165 7.38499314 278.48908165 7.38499314 276.77332872 7.37816578 C275.58880082 7.38128576 274.40427292 7.38440574 273.18385023 7.38762027 C269.88569384 7.39423969 266.58776369 7.39182711 263.28962082 7.38564783 C259.73674752 7.38113874 256.18389456 7.3880994 252.63102525 7.39360768 C245.66691423 7.40251989 238.70284621 7.40057156 231.73873347 7.39478239 C226.08089923 7.39027308 220.42307708 7.38964983 214.76524156 7.39183003 C213.96123523 7.39213649 213.1572289 7.39244296 212.32885873 7.39275871 C210.69574326 7.39339814 209.06262779 7.39404656 207.42951232 7.39470389 C192.10113868 7.40041254 176.77278893 7.39384092 161.44441921 7.38310316 C148.2803621 7.37416716 135.11634027 7.37571906 121.9522838 7.38494068 C106.68028139 7.39563389 91.40829994 7.39986317 76.13629431 7.39371616 C74.50904968 7.39307903 72.88180505 7.39245029 71.25456041 7.39183003 C70.05347954 7.3913672 70.05347954 7.3913672 68.82813442 7.39089502 C63.17443391 7.38916523 57.52074666 7.3920893 51.8670482 7.39678913 C44.98089448 7.40238744 38.09478637 7.40090375 31.20863789 7.39022765 C27.69248801 7.3849567 24.1764143 7.38293823 20.66026491 7.38952595 C16.85562423 7.39654659 13.0511094 7.38818698 9.24647325 7.37816578 C8.12528817 7.38262722 7.00410309 7.38708867 5.8489427 7.39168531 C4.83600928 7.38646981 3.82307586 7.38125432 2.7794475 7.37588078 C1.90033992 7.37555607 1.02123234 7.37523137 0.11548513 7.37489682 C-1.99009901 7.1241985 -1.99009901 7.1241985 -3.99009901 5.1241985 C-3.2443835 0.20247613 -3.2443835 0.20247613 0 0 Z " fill="#0763AE" transform="translate(186.99009901285172,491.8758015036583)"/>
<path d="M0 0 C1.29593056 19.85036487 1.29593056 19.85036487 -4.79296875 27.82421875 C-10.97969859 33.92334888 -17.6117932 37.10191645 -26.25 37.25 C-31.57290674 37.18603984 -35.24649631 36.41844925 -40 34 C-44.28792789 29.5992319 -46.28695086 25.70281112 -46.3125 19.5625 C-46.17423961 14.07574544 -45.35939083 11.46721245 -41.546875 7.48046875 C-30.68635699 -2.223168 -13.5664373 -0.37187189 0 0 Z " fill="#FDFBF9" transform="translate(448,600)"/>
<path d="M0 0 C6.29787019 4.18255501 10.42342762 8.91442595 13 16 C13.495 20.95 13.495 20.95 14 26 C-4.48 26 -22.96 26 -42 26 C-40.92417729 16.31759563 -39.37067909 9.77905526 -32.1875 3.0625 C-22.52439784 -4.6100755 -11.19256417 -4.81521826 0 0 Z " fill="#FEFBF9" transform="translate(714,565)"/>
<path d="M0 0 C5.04884441 0.09912653 7.9413101 0.85196184 11.75 4.375 C13.9133006 7.11518076 14.67352448 8.86152151 15.1875 12.3125 C14.61805603 16.29860781 13.34153951 18.30607163 10.75 21.375 C6.61947845 24.25675922 2.87255362 24.95902786 -2.06640625 24.80078125 C-5.86450149 24.06018665 -7.60450388 22.14954471 -10.25 19.375 C-12.91777958 15.37333063 -13.08537677 12.08123152 -12.25 7.375 C-9.875 4.4375 -9.875 4.4375 -7.25 2.375 C-4.68599223 -0.18900777 -3.56217985 0.04866366 0 0 Z " fill="#0965B3" transform="translate(497.25,503.625)"/>
<path d="M0 0 C0.24888281 4.00088693 0.42936435 7.99873665 0.54931641 12.00561523 C0.59934038 13.36513772 0.66739674 14.72412913 0.75439453 16.08178711 C1.03322733 20.54803247 1.07887123 24.64371744 0 29 C-2.93458621 32.23969317 -6.17503146 33.97888206 -10 36 C-11.00729239 36.99265404 -12.00941531 37.99067251 -13 39 C-13.66 39 -14.32 39 -15 39 C-15 32.73 -15 26.46 -15 20 C-16.32 20.33 -17.64 20.66 -19 21 C-18.20178389 13.68301898 -15.15203876 10.74362111 -9.60546875 6.078125 C-8.74566406 5.39234375 -7.88585937 4.7065625 -7 4 C-6.10925781 3.25234375 -5.21851563 2.5046875 -4.30078125 1.734375 C-2 0 -2 0 0 0 Z " fill="#135FA5" transform="translate(403,316)"/>
<path d="M0 0 C3.75571057 0.78689683 5.29612337 1.99328811 7.9375 4.8125 C10.22191296 7.21624797 12.21014541 9.14754891 14.9375 11.0625 C17.82282016 13.77295228 17.77810454 16.15381197 18 20 C18.66 20 19.32 20 20 20 C19.67 21.32 19.34 22.64 19 24 C16.47154472 22.73577236 16.23577236 21.47154472 15 19 C14.34 18.67 13.68 18.34 13 18 C13 23.94 13 29.88 13 36 C11.35 35.34 9.7 34.68 8 34 C7.26716797 33.74645752 6.53433594 33.49291504 5.77929688 33.23168945 C3.25173586 32.08979488 1.78593478 31.14577938 0 29 C-1.01362426 24.05780913 -0.75351939 19.19630174 -0.5 14.1875 C-0.45984294 12.81325414 -0.42334594 11.43889614 -0.390625 10.06445312 C-0.29637467 6.70678525 -0.16490272 3.35481899 0 0 Z " fill="#09579C" transform="translate(364,317)"/>
<path d="M0 0 C0.66 0 1.32 0 2 0 C3.625 2.5 3.625 2.5 5 5 C4.34 5 3.68 5 3 5 C3 14.57 3 24.14 3 34 C3.66 34.33 4.32 34.66 5 35 C1.125 34.125 1.125 34.125 0 33 C-0.08843793 30.55169574 -0.11528752 28.13179401 -0.09765625 25.68359375 C-0.0962413 24.95253922 -0.09482635 24.22148468 -0.09336853 23.46827698 C-0.08775408 21.12464368 -0.07519922 18.78110461 -0.0625 16.4375 C-0.05748686 14.85221492 -0.05292363 13.26692834 -0.04882812 11.68164062 C-0.03777997 7.7877239 -0.02050572 3.89387795 0 0 Z " fill="#E68342" transform="translate(361,312)"/>
<path d="M0 0 C0.66 0 1.32 0 2 0 C2 10.89 2 21.78 2 33 C0.02 33.495 0.02 33.495 -2 34 C-2.04945386 29.64007129 -2.08574488 25.28029138 -2.10986328 20.92016602 C-2.11991821 19.43706417 -2.13356404 17.95398212 -2.15087891 16.47094727 C-2.17515006 14.33865469 -2.18648799 12.20662431 -2.1953125 10.07421875 C-2.20578613 8.79119873 -2.21625977 7.50817871 -2.22705078 6.1862793 C-2 3 -2 3 0 0 Z " fill="#F88B35" transform="translate(404,312)"/>
<path d="M0 0 C1.9375 1.0625 1.9375 1.0625 4 3 C4.75 6.6875 4.75 6.6875 5 10 C5.66 10 6.32 10 7 10 C6.67 11.32 6.34 12.64 6 14 C3.47154472 12.73577236 3.23577236 11.47154472 2 9 C1.34 8.67 0.68 8.34 0 8 C0.2784375 7.13375 0.2784375 7.13375 0.5625 6.25 C1.04023546 3.79307475 0.75729364 2.35602466 0 0 Z " fill="#285C91" transform="translate(377,327)"/>
<path d="M0 0 C1.32 1.32 2.64 2.64 4 4 C3.34 4 2.68 4 2 4 C1.67 10.93 1.34 17.86 1 25 C0.67 25 0.34 25 0 25 C0 16.75 0 8.5 0 0 Z " fill="#F67822" transform="translate(362,313)"/>
<path d="M0 0 C0.66 0.33 1.32 0.66 2 1 C-1.66666667 4.66666667 -5.33333333 8.33333333 -9 12 C-9.66 11.67 -10.32 11.34 -11 11 C-9.73347137 9.53792657 -8.46161082 8.08047074 -7.1875 6.625 C-6.47980469 5.81289063 -5.77210938 5.00078125 -5.04296875 4.1640625 C-3 2 -3 2 0 0 Z " fill="#1D71BB" transform="translate(286,381)"/>
<path d="M0 0 C-0.97309748 2.17075592 -1.7275461 3.7609078 -3.53125 5.34375 C-5.4200861 7.47371411 -5.48399034 8.87906664 -5.6875 11.6875 C-5.75324219 12.49574219 -5.81898438 13.30398438 -5.88671875 14.13671875 C-5.92410156 14.75160156 -5.96148437 15.36648438 -6 16 C-6.33 16 -6.66 16 -7 16 C-7.86066329 6.32231944 -7.86066329 6.32231944 -4.625 2.375 C-2 0 -2 0 0 0 Z " fill="#FC9B4A" transform="translate(258,515)"/>
<path d="M0 0 C-0.33 0.99 -0.66 1.98 -1 3 C-4.375 3.125 -4.375 3.125 -8 3 C-8.66 2.34 -9.32 1.68 -10 1 C-6.78548731 -0.60725635 -3.56387464 -0.05748185 0 0 Z " fill="#FD9C45" transform="translate(591,550)"/>
<path d="M0 0 C1.65 0 3.3 0 5 0 C4.34 2.31 3.68 4.62 3 7 C2.34 7 1.68 7 1 7 C0.67 4.69 0.34 2.38 0 0 Z " fill="#EAE5DF" transform="translate(381,330)"/>
<path d="M0 0 C0.66 0.33 1.32 0.66 2 1 C-0.64 3.97 -3.28 6.94 -6 10 C-6.33 9.34 -6.66 8.68 -7 8 C-4.69 5.36 -2.38 2.72 0 0 Z " fill="#FC9A44" transform="translate(568,558)"/>
<path d="M0 0 C0.66 0.33 1.32 0.66 2 1 C-0.64 3.64 -3.28 6.28 -6 9 C-6 6 -6 6 -3.5625 3.375 C-2.716875 2.59125 -1.87125 1.8075 -1 1 C-0.67 0.67 -0.34 0.34 0 0 Z " fill="#FEEDDC" transform="translate(346,571)"/>
<path d="M0 0 C2.125 0.375 2.125 0.375 4 1 C-1.75 6 -1.75 6 -4 6 C-2.84826645 3.53199953 -1.95216435 1.95216435 0 0 Z " fill="#2977BB" transform="translate(424,377)"/>
<path d="M0 0 C-1.45255699 3.82946843 -3.42895561 5.12050295 -7 7 C-3.86206897 0 -3.86206897 0 0 0 Z " fill="#1E73B8" transform="translate(495,551)"/>
<path d="M0 0 C0.66 0 1.32 0 2 0 C1.35455571 3.48539917 -0.10134397 6.02819057 -2 9 C-2.33 8.34 -2.66 7.68 -3 7 C-2.06421005 4.64018187 -1.06652192 2.30368736 0 0 Z " fill="#27588F" transform="translate(387,328)"/>
<path d="M0 0 C2.88575819 0.39803561 3.82189513 0.79009069 5.75 3.0625 C6.1625 3.701875 6.575 4.34125 7 5 C5.35 4.67 3.7 4.34 2 4 C2 3.34 2 2.68 2 2 C1.34 2 0.68 2 0 2 C0 1.34 0 0.68 0 0 Z " fill="#4B6277" transform="translate(364,317)"/>
</svg>
